<!--?xml version="1.0" encoding="utf-8"?-->
<!-- Svg Vector Icons : http://www.onlinewebfonts.com/icon -->

<svg version="1.1" xmlns="http://www.w3.org/2000/svg" xmlns:xlink="http://www.w3.org/1999/xlink" x="0px" y="0px" viewBox="0 0 256 256" enable-background="new 0 0 256 256" xml:space="preserve">
<metadata> Svg Vector Icons : http://www.onlinewebfonts.com/icon </metadata>
<g><g><g><path fill="#ffffff" data-title="Layer 0" xs="0" d="M121.1,10c-11.6,1-19.8,2.5-28.4,5.3c-44.2,14.1-75.6,51.4-81.9,97.5c-1.1,7.8-1.1,22.7,0,30.5c4.8,34.7,23.8,64.9,53,83.9c15,9.8,32.1,15.9,50.6,18.3c6,0.7,21.3,0.7,27.3,0c21.8-2.8,41.1-10.7,58.6-23.9c6.1-4.6,16.6-15.2,21.3-21.3c13.3-17.5,21.2-36.8,23.9-58.6c0.7-6,0.7-21.3,0-27.3c-2.4-18.5-8.5-35.6-18.3-50.6c-18.9-29.1-49.6-48.4-83.6-52.9C138,10.2,125,9.7,121.1,10z M138.9,18.1c35.4,3.5,67.1,24.1,85,55.2c18.3,31.8,19.5,71,3.1,103.8c-23.7,47.3-76.4,71.2-127.4,57.8c-40.3-10.6-71.8-44.2-79.9-85.2c-9.2-46.4,12-93.1,53.2-117.2c12.9-7.5,28.9-12.8,43.4-14.2C122.2,17.6,133,17.5,138.9,18.1z"/><path fill="#ffffff" data-title="Layer 1" xs="1" d="M92,112.2c-1.6,0.6-2.8,2.2-2.8,3.7c0,1.2,0.5,2.1,2.4,4.2c6.4,6.9,33.6,35.5,34.2,36.1c0.4,0.3,1.5,0.6,2.5,0.5c1.6-0.1,2.5-1,14.7-13.8c24.3-25.7,23.8-25.2,23.8-26.9c0-2.1-1.6-3.6-3.8-3.6c-1.9,0,0-1.9-21,20.4c-7.6,8-13.9,14.6-14,14.6s-7.4-7.6-16.2-17c-13.4-14.3-17.9-18.7-19-18.4C92.7,111.9,92.3,112.1,92,112.2z"/></g></g></g>
</svg>