<!--?xml version="1.0" encoding="utf-8"?-->
<!-- Svg Vector Icons : http://www.onlinewebfonts.com/icon -->

<svg version="1.1" xmlns="http://www.w3.org/2000/svg" xmlns:xlink="http://www.w3.org/1999/xlink" x="0px" y="0px" viewBox="0 0 256 256" enable-background="new 0 0 256 256" xml:space="preserve">
<metadata> Svg Vector Icons : http://www.onlinewebfonts.com/icon </metadata>
<g><g><path fill="#ffffff" data-title="Layer 0" xs="0" d="M128,246c-15.9,0-31.4-3.1-45.9-9.3c-14.1-5.9-26.7-14.4-37.5-25.3c-10.8-10.8-19.3-23.5-25.3-37.5c-6.2-14.6-9.3-30-9.3-45.9s3.1-31.4,9.3-45.9C25.2,68,33.7,55.4,44.6,44.6C55.4,33.7,68,25.2,82.1,19.3c14.6-6.2,30-9.3,45.9-9.3s31.4,3.1,45.9,9.3c14.1,5.9,26.7,14.4,37.5,25.3c10.8,10.8,19.3,23.5,25.3,37.5c6.2,14.6,9.3,30,9.3,45.9s-3.1,31.4-9.3,45.9c-5.9,14.1-14.4,26.7-25.3,37.5c-10.8,10.8-23.5,19.3-37.5,25.3C159.4,242.9,143.9,246,128,246z M128,27.1C72.4,27.1,27.1,72.4,27.1,128c0,55.6,45.3,100.9,100.9,100.9c55.7,0,100.9-45.3,100.9-100.9C228.9,72.4,183.6,27.1,128,27.1z"/><path fill="#ffffff" data-title="Layer 1" xs="1" d="M182.2,118.5c0-3.9-1.5-7.7-4.4-10.6c-5.9-5.9-15.4-5.9-21.3,0L128,136.4l-28.5-28.5c-5.9-5.9-15.4-5.9-21.3,0c-5.9,5.9-5.9,15.4,0,21.3l39.1,39.1c2.8,2.8,6.6,4.4,10.6,4.4s7.8-1.6,10.6-4.4l39.1-39.1C180.7,126.2,182.2,122.4,182.2,118.5z"/></g></g>
</svg>